#!OML:ASF I:\golf\golf\golf 2\Subject 1\2002-09-07\Subject1.ASF
:FULLY-SPECIFIED
:DEGREES
408
root -0.23538 17.7778 -4.18259 8.08094 -0.0845787 -3.95062
lowerback 10.1372 2.0659 -3.41526
upperback 5.63105 2.48435 3.94863
thorax -0.123555 1.12005 5.79196
lowerneck -18.2874 -1.20034 -0.461246
upperneck 23.7283 0.0843991 -5.99143
head 10.6746 -0.736248 -2.06335
rclavicle -1.98785e-014 -2.14687e-014
rhumerus -18.7784 2.20779 -74.5016
rradius 35.5552
rwrist -15.6833
rhand -22.0916 10.4185
rfingers 7.12502
rthumb 4.32027 -19.5174
lclavicle -1.98785e-014 -2.14687e-014
lhumerus -17.9716 -46.124 95.731
lradius 31.6046
lwrist -25.5792
lhand -29.0525 16.8502
lfingers 7.12502
lthumb -2.4024 46.8164
rfemur -25.2814 -6.84956 28.031
rtibia 37.0977
rfoot -14.5161 -12.2161
rtoes 6.83076
lfemur -33.0061 5.89398 -7.12371
ltibia 36.1383
lfoot -11.3673 -8.00803
ltoes -18.8186
409
root -0.249555 17.794 -4.1813 7.69849 -0.225285 -3.8951
lowerback 9.80236 1.96832 -3.39869
upperback 5.45421 2.366 3.9541
thorax -0.110506 1.06493 5.80653
lowerneck -18.3845 -1.1325 -0.337063
upperneck 23.7884 0.157246 -6.03327
head 10.7174 -0.699968 -2.09195
rclavicle -1.72943e-014 -4.49253e-014
rhumerus -18.9871 1.71492 -74.3396
rradius 35.4255
rwrist -15.1409
rhand -22.3837 10.5588
rfingers 7.12502
rthumb 4.03823 -19.3827
lclavicle -1.72943e-014 -4.49253e-014
lhumerus -18.3679 -44.7791 95.8746
lradius 31.5529
lwrist -25.7653
lhand -27.6168 17.7144
lfingers 7.12502
lthumb -1.01582 47.6918
rfemur -24.5637 -6.72185 27.9433
rtibia 36.574
rfoot -14.2888 -12.2391
rtoes 6.70878
lfemur -32.4068 5.67138 -7.01841
ltibia 37.0273
lfoot -11.8604 -9.23526
ltoes -19.9671
410
root -0.265328 17.8099 -4.18069 7.37612 -0.437434 -3.95258
lowerback 9.39727 1.90982 -3.36072
upperback 5.31965 2.30242 4.04238
thorax -0.0234685 1.03388 5.89279
lowerneck -18.4911 -1.08693 -0.259722
upperneck 23.6379 0.211932 -6.1117
head 10.6844 -0.677525 -2.12354
rclavicle -4.77083e-015 -3.29983e-014
rhumerus -19.107 1.23007 -74.0782
rradius 35.4954
rwrist -14.9607
rhand -22.3772 10.3774
rfingers 7.12502
rthumb 4.04448 -19.5639
lclavicle -4.77083e-015 -3.29983e-014
lhumerus -18.5681 -43.3079 95.9545
lradius 31.438
lwrist -25.8509
lhand -26.8969 18.3893
lfingers 7.12502
lthumb -0.320537 48.3688
rfemur -23.9208 -6.58093 28.0104
rtibia 36.0371
rfoot -14.0056 -12.2895
rtoes 6.0572
lfemur -31.8633 5.5073 -6.78467
ltibia 38.0606
lfoot -12.0565 -10.4664
ltoes -19.3786
411
root -0.27966 17.8288 -4.17875 7.03623 -0.678577 -4.03186
lowerback 9.00883 1.86543 -3.26284
upperback 5.17214 2.26103 4.10944
thorax 0.0413138 1.01614 5.9188
lowerneck -18.4233 -1.02563 -0.0878258
upperneck 23.3269 0.24937 -6.19871
head 10.5579 -0.650408 -2.17024
rclavicle -1.8487e-014 -2.38542e-014
rhumerus -19.2231 0.540698 -73.8182
rradius 35.6121
rwrist -15.1181
rhand -21.9435 10.1579
rfingers 7.12502
rthumb 4.46334 -19.775
lclavicle -1.8487e-014 -2.38542e-014
lhumerus -18.7764 -42.0818 96.0445
lradius 31.27
lwrist -25.5589
lhand -25.87 18.9007
lfingers 7.12502
lthumb 0.671282 48.8793
rfemur -23.2787 -6.43554 28.0694
rtibia 35.5457
rfoot -13.8981 -12.1651
rtoes 6.58816
lfemur -31.3191 5.39833 -6.56912
ltibia 39.2872
lfoot -12.2738 -11.5116
ltoes -18.2768
412
root -0.286973 17.8334 -4.17879 6.70989 -0.914131 -4.06428
lowerback 8.69006 1.81379 -3.09551
upperback 4.97291 2.21321 4.1129
thorax 0.0194943 1.00031 5.83512
lowerneck -18.3666 -0.958768 0.0481605
upperneck 23.1353 0.280461 -6.16515
head 10.4771 -0.616826 -2.17142
rclavicle 9.74045e-015 2.3059e-014
rhumerus -19.4533 -0.186487 -73.6194
rradius 35.7073
rwrist -15.0473
rhand -21.8199 10.0051
rfingers 7.12502
rthumb 4.58263 -19.9253
lclavicle 9.74045e-015 2.3059e-014
lhumerus -19.1305 -41.1414 96.1847
lradius 31.1682
lwrist -24.9664
lhand -24.4211 19.6108
lfingers 7.12502
lthumb 2.07067 49.5805
rfemur -22.5792 -6.35947 28.0848
rtibia 35.0319
rfoot -13.6578 -12.1163
rtoes 5.93
lfemur -30.8485 5.39491 -6.48004
ltibia 40.6439
lfoot -12.5122 -12.3329
ltoes -17.5736
413
root -0.291443 17.8232 -4.18157 6.38699 -1.17391 -4.11505
lowerback 8.35159 1.75094 -3.03483
upperback 4.82189 2.14257 4.21902
thorax 0.0553662 0.967394 5.92471
lowerneck -18.4605 -0.891413 0.00352257
upperneck 23.0816 0.371084 -6.10742
head 10.4791 -0.573549 -2.13047
rclavicle 2.92213e-014 4.73108e-014
rhumerus -19.6417 -0.679169 -73.3411
rradius 35.8411
rwrist -14.9731
rhand -21.9906 10.0438
rfingers 7.12502
rthumb 4.41786 -19.8901
lclavicle 2.92213e-014 4.73108e-014
lhumerus -19.4601 -39.9508 96.3475
lradius 31.2958
lwrist -24.3474
lhand -23.9013 20.3984
lfingers 7.12502
lthumb 2.57271 50.3626
rfemur -21.9236 -6.22222 28.1217
rtibia 34.5475
rfoot -13.3828 -12.1311
rtoes 4.89679
lfemur -30.4101 5.45781 -6.39511
ltibia 42.1622
lfoot -12.8031 -12.8113
ltoes -18.3066
